<?xml version="1.0" encoding="UTF-8" standalone="no"?>
<!DOCTYPE svg PUBLIC "-//W3C//DTD SVG 1.1//EN"
 "http://www.w3.org/Graphics/SVG/1.1/DTD/svg11.dtd">
<!-- Generated by graphviz version 2.43.0 (0)
 -->
<!-- Title: undefined Pages: 1 -->
<svg width="1007pt" height="1516pt"
 viewBox="0.00 0.00 1006.60 1515.60" xmlns="http://www.w3.org/2000/svg" xmlns:xlink="http://www.w3.org/1999/xlink">
<g id="graph0" class="graph" transform="scale(1 1) rotate(0) translate(28.8 1465.8)">
<title>undefined</title>
<polygon fill="white" stroke="transparent" points="-28.8,49.8 -28.8,-1465.8 977.8,-1465.8 977.8,49.8 -28.8,49.8"/>
<text text-anchor="start" x="445.5" y="12.6" font-family="Helvetica,sans-Serif" font-weight="bold" font-size="12.00">nutra.db</text>
<!-- version -->
<g id="node1" class="node">
<title>version</title>
<path fill="none" stroke="black" d="M815.24,-730.14C815.24,-730.14 935.24,-730.14 935.24,-730.14 941.24,-730.14 947.24,-736.14 947.24,-742.14 947.24,-742.14 947.24,-805.14 947.24,-805.14 947.24,-811.14 941.24,-817.14 935.24,-817.14 935.24,-817.14 815.24,-817.14 815.24,-817.14 809.24,-817.14 803.24,-811.14 803.24,-805.14 803.24,-805.14 803.24,-742.14 803.24,-742.14 803.24,-736.14 809.24,-730.14 815.24,-730.14"/>
<text text-anchor="start" x="848.24" y="-796.74" font-family="Helvetica,sans-Serif" font-weight="bold" font-size="13.00">version</text>
<polyline fill="none" stroke="black" points="803.24,-787.14 947.24,-787.14 "/>
<text text-anchor="start" x="810.24" y="-773.04" font-family="Helvetica,sans-Serif" font-size="12.00">id* </text>
<text text-anchor="start" x="831.24" y="-773.04" font-family="Helvetica,sans-Serif" font-weight="bold" font-size="12.00">integer</text>
<text text-anchor="start" x="810.24" y="-756.04" font-family="Helvetica,sans-Serif" font-size="12.00">version </text>
<text text-anchor="start" x="858.24" y="-756.04" font-family="Helvetica,sans-Serif" font-weight="bold" font-size="12.00">text</text>
<text text-anchor="start" x="810.24" y="-739.04" font-family="Helvetica,sans-Serif" font-size="12.00">created </text>
<text text-anchor="start" x="860.24" y="-739.04" font-family="Helvetica,sans-Serif" font-weight="bold" font-size="12.00">timestamp</text>
</g>
<!-- sqlite_sequence -->
<g id="node2" class="node">
<title>sqlite_sequence</title>
<path fill="none" stroke="black" d="M815.24,-949.64C815.24,-949.64 935.24,-949.64 935.24,-949.64 941.24,-949.64 947.24,-955.64 947.24,-961.64 947.24,-961.64 947.24,-1007.64 947.24,-1007.64 947.24,-1013.64 941.24,-1019.64 935.24,-1019.64 935.24,-1019.64 815.24,-1019.64 815.24,-1019.64 809.24,-1019.64 803.24,-1013.64 803.24,-1007.64 803.24,-1007.64 803.24,-961.64 803.24,-961.64 803.24,-955.64 809.24,-949.64 815.24,-949.64"/>
<text text-anchor="start" x="817.24" y="-999.24" font-family="Helvetica,sans-Serif" font-weight="bold" font-size="13.00">sqlite_sequence</text>
<polyline fill="none" stroke="black" points="803.24,-989.64 947.24,-989.64 "/>
<text text-anchor="start" x="810.24" y="-976.04" font-family="Helvetica,sans-Serif" font-size="12.00">name </text>
<text text-anchor="start" x="849.24" y="-976.04" font-family="Helvetica,sans-Serif" font-weight="bold" font-size="12.00"> </text>
<text text-anchor="start" x="810.24" y="-959.04" font-family="Helvetica,sans-Serif" font-size="12.00">seq </text>
<text text-anchor="start" x="835.24" y="-959.04" font-family="Helvetica,sans-Serif" font-weight="bold" font-size="12.00"> </text>
</g>
<!-- nutr_def -->
<g id="node3" class="node">
<title>nutr_def</title>
<path fill="none" stroke="black" d="M11.97,-646.9C11.97,-646.9 135.97,-646.9 135.97,-646.9 141.97,-646.9 147.97,-652.9 147.97,-658.9 147.97,-658.9 147.97,-823.9 147.97,-823.9 147.97,-829.9 141.97,-835.9 135.97,-835.9 135.97,-835.9 11.97,-835.9 11.97,-835.9 5.97,-835.9 -0.03,-829.9 -0.03,-823.9 -0.03,-823.9 -0.03,-658.9 -0.03,-658.9 -0.03,-652.9 5.97,-646.9 11.97,-646.9"/>
<text text-anchor="start" x="42.97" y="-815.5" font-family="Helvetica,sans-Serif" font-weight="bold" font-size="13.00">nutr_def</text>
<polyline fill="none" stroke="black" points="-0.03,-805.9 147.97,-805.9 "/>
<text text-anchor="start" x="6.97" y="-791.8" font-family="Helvetica,sans-Serif" font-size="12.00">id* </text>
<text text-anchor="start" x="27.97" y="-791.8" font-family="Helvetica,sans-Serif" font-weight="bold" font-size="12.00">integer</text>
<text text-anchor="start" x="6.97" y="-774.8" font-family="Helvetica,sans-Serif" font-size="12.00">rda </text>
<text text-anchor="start" x="30.97" y="-774.8" font-family="Helvetica,sans-Serif" font-weight="bold" font-size="12.00">float</text>
<text text-anchor="start" x="6.97" y="-757.8" font-family="Helvetica,sans-Serif" font-size="12.00">unit </text>
<text text-anchor="start" x="33.97" y="-757.8" font-family="Helvetica,sans-Serif" font-weight="bold" font-size="12.00">text</text>
<text text-anchor="start" x="6.97" y="-740.8" font-family="Helvetica,sans-Serif" font-size="12.00">tagname </text>
<text text-anchor="start" x="64.97" y="-740.8" font-family="Helvetica,sans-Serif" font-weight="bold" font-size="12.00">text</text>
<text text-anchor="start" x="6.97" y="-723.8" font-family="Helvetica,sans-Serif" font-size="12.00">nutr_desc </text>
<text text-anchor="start" x="69.97" y="-723.8" font-family="Helvetica,sans-Serif" font-weight="bold" font-size="12.00">text</text>
<text text-anchor="start" x="6.97" y="-706.8" font-family="Helvetica,sans-Serif" font-size="12.00">anti_nutrient </text>
<text text-anchor="start" x="86.97" y="-706.8" font-family="Helvetica,sans-Serif" font-weight="bold" font-size="12.00">boolean</text>
<text text-anchor="start" x="6.97" y="-689.8" font-family="Helvetica,sans-Serif" font-size="12.00">num_dec </text>
<text text-anchor="start" x="65.97" y="-689.8" font-family="Helvetica,sans-Serif" font-weight="bold" font-size="12.00">int</text>
<text text-anchor="start" x="6.97" y="-672.8" font-family="Helvetica,sans-Serif" font-size="12.00">sr_order </text>
<text text-anchor="start" x="60.97" y="-672.8" font-family="Helvetica,sans-Serif" font-weight="bold" font-size="12.00">int</text>
<text text-anchor="start" x="6.97" y="-655.8" font-family="Helvetica,sans-Serif" font-size="12.00">flav_class </text>
<text text-anchor="start" x="67.97" y="-655.8" font-family="Helvetica,sans-Serif" font-weight="bold" font-size="12.00">text</text>
</g>
<!-- fdgrp -->
<g id="node4" class="node">
<title>fdgrp</title>
<path fill="none" stroke="black" d="M817.16,-543.88C817.16,-543.88 937.16,-543.88 937.16,-543.88 943.16,-543.88 949.16,-549.88 949.16,-555.88 949.16,-555.88 949.16,-601.88 949.16,-601.88 949.16,-607.88 943.16,-613.88 937.16,-613.88 937.16,-613.88 817.16,-613.88 817.16,-613.88 811.16,-613.88 805.16,-607.88 805.16,-601.88 805.16,-601.88 805.16,-555.88 805.16,-555.88 805.16,-549.88 811.16,-543.88 817.16,-543.88"/>
<text text-anchor="start" x="857.16" y="-593.48" font-family="Helvetica,sans-Serif" font-weight="bold" font-size="13.00">fdgrp</text>
<polyline fill="none" stroke="black" points="805.16,-583.88 949.16,-583.88 "/>
<text text-anchor="start" x="812.16" y="-570.28" font-family="Helvetica,sans-Serif" font-size="12.00">id* </text>
<text text-anchor="start" x="833.16" y="-570.28" font-family="Helvetica,sans-Serif" font-weight="bold" font-size="12.00">integer</text>
<text text-anchor="start" x="812.16" y="-553.28" font-family="Helvetica,sans-Serif" font-size="12.00">fdgrp_desc </text>
<text text-anchor="start" x="882.16" y="-553.28" font-family="Helvetica,sans-Serif" font-weight="bold" font-size="12.00">text</text>
</g>
<!-- food_des -->
<g id="node5" class="node">
<title>food_des</title>
<path fill="none" stroke="black" d="M508.73,-469.21C508.73,-469.21 628.73,-469.21 628.73,-469.21 634.73,-469.21 640.73,-475.21 640.73,-481.21 640.73,-481.21 640.73,-731.21 640.73,-731.21 640.73,-737.21 634.73,-743.21 628.73,-743.21 628.73,-743.21 508.73,-743.21 508.73,-743.21 502.73,-743.21 496.73,-737.21 496.73,-731.21 496.73,-731.21 496.73,-481.21 496.73,-481.21 496.73,-475.21 502.73,-469.21 508.73,-469.21"/>
<text text-anchor="start" x="535.73" y="-722.81" font-family="Helvetica,sans-Serif" font-weight="bold" font-size="13.00">food_des</text>
<polyline fill="none" stroke="black" points="496.73,-713.21 640.73,-713.21 "/>
<text text-anchor="start" x="503.73" y="-699.61" font-family="Helvetica,sans-Serif" font-size="12.00">id* </text>
<text text-anchor="start" x="524.73" y="-699.61" font-family="Helvetica,sans-Serif" font-weight="bold" font-size="12.00">integer</text>
<text text-anchor="start" x="503.73" y="-682.61" font-family="Helvetica,sans-Serif" font-size="12.00">fdgrp_id </text>
<text text-anchor="start" x="556.73" y="-682.61" font-family="Helvetica,sans-Serif" font-weight="bold" font-size="12.00">int</text>
<text text-anchor="start" x="503.73" y="-665.61" font-family="Helvetica,sans-Serif" font-size="12.00">long_desc </text>
<text text-anchor="start" x="567.73" y="-665.61" font-family="Helvetica,sans-Serif" font-weight="bold" font-size="12.00">text</text>
<text text-anchor="start" x="503.73" y="-648.61" font-family="Helvetica,sans-Serif" font-size="12.00">shrt_desc </text>
<text text-anchor="start" x="564.73" y="-648.61" font-family="Helvetica,sans-Serif" font-weight="bold" font-size="12.00">text</text>
<text text-anchor="start" x="503.73" y="-631.61" font-family="Helvetica,sans-Serif" font-size="12.00">com_name </text>
<text text-anchor="start" x="574.73" y="-631.61" font-family="Helvetica,sans-Serif" font-weight="bold" font-size="12.00">text</text>
<text text-anchor="start" x="503.73" y="-614.61" font-family="Helvetica,sans-Serif" font-size="12.00">manufac_name </text>
<text text-anchor="start" x="601.73" y="-614.61" font-family="Helvetica,sans-Serif" font-weight="bold" font-size="12.00">text</text>
<text text-anchor="start" x="503.73" y="-597.61" font-family="Helvetica,sans-Serif" font-size="12.00">survey </text>
<text text-anchor="start" x="547.73" y="-597.61" font-family="Helvetica,sans-Serif" font-weight="bold" font-size="12.00">text</text>
<text text-anchor="start" x="503.73" y="-580.61" font-family="Helvetica,sans-Serif" font-size="12.00">ref_desc </text>
<text text-anchor="start" x="558.73" y="-580.61" font-family="Helvetica,sans-Serif" font-weight="bold" font-size="12.00">text</text>
<text text-anchor="start" x="503.73" y="-563.61" font-family="Helvetica,sans-Serif" font-size="12.00">refuse </text>
<text text-anchor="start" x="545.73" y="-563.61" font-family="Helvetica,sans-Serif" font-weight="bold" font-size="12.00">int</text>
<text text-anchor="start" x="503.73" y="-546.61" font-family="Helvetica,sans-Serif" font-size="12.00">sci_name </text>
<text text-anchor="start" x="564.73" y="-546.61" font-family="Helvetica,sans-Serif" font-weight="bold" font-size="12.00">text</text>
<text text-anchor="start" x="503.73" y="-529.61" font-family="Helvetica,sans-Serif" font-size="12.00">n_factor </text>
<text text-anchor="start" x="557.73" y="-529.61" font-family="Helvetica,sans-Serif" font-weight="bold" font-size="12.00">float</text>
<text text-anchor="start" x="503.73" y="-512.61" font-family="Helvetica,sans-Serif" font-size="12.00">pro_factor </text>
<text text-anchor="start" x="569.73" y="-512.61" font-family="Helvetica,sans-Serif" font-weight="bold" font-size="12.00">float</text>
<text text-anchor="start" x="503.73" y="-495.61" font-family="Helvetica,sans-Serif" font-size="12.00">fat_factor </text>
<text text-anchor="start" x="566.73" y="-495.61" font-family="Helvetica,sans-Serif" font-weight="bold" font-size="12.00">float</text>
<text text-anchor="start" x="503.73" y="-478.61" font-family="Helvetica,sans-Serif" font-size="12.00">cho_factor </text>
<text text-anchor="start" x="571.73" y="-478.61" font-family="Helvetica,sans-Serif" font-weight="bold" font-size="12.00">float</text>
</g>
<!-- food_des&#45;&gt;fdgrp -->
<g id="edge1" class="edge">
<title>food_des&#45;&gt;fdgrp</title>
<path fill="none" stroke="black" stroke-width="0.9" d="M641.04,-599.8C687.75,-595.66 748.58,-590.27 796.8,-586"/>
<polygon fill="black" stroke="black" stroke-width="0.9" points="797.31,-588.76 805.03,-585.27 796.82,-583.19 797.31,-588.76"/>
</g>
<!-- src_cd -->
<g id="node6" class="node">
<title>src_cd</title>
<path fill="none" stroke="black" d="M263.66,-1366.74C263.66,-1366.74 383.66,-1366.74 383.66,-1366.74 389.66,-1366.74 395.66,-1372.74 395.66,-1378.74 395.66,-1378.74 395.66,-1424.74 395.66,-1424.74 395.66,-1430.74 389.66,-1436.74 383.66,-1436.74 383.66,-1436.74 263.66,-1436.74 263.66,-1436.74 257.66,-1436.74 251.66,-1430.74 251.66,-1424.74 251.66,-1424.74 251.66,-1378.74 251.66,-1378.74 251.66,-1372.74 257.66,-1366.74 263.66,-1366.74"/>
<text text-anchor="start" x="300.66" y="-1416.34" font-family="Helvetica,sans-Serif" font-weight="bold" font-size="13.00">src_cd</text>
<polyline fill="none" stroke="black" points="251.66,-1406.74 395.66,-1406.74 "/>
<text text-anchor="start" x="258.66" y="-1393.14" font-family="Helvetica,sans-Serif" font-size="12.00">id* </text>
<text text-anchor="start" x="279.66" y="-1393.14" font-family="Helvetica,sans-Serif" font-weight="bold" font-size="12.00">text</text>
<text text-anchor="start" x="258.66" y="-1376.14" font-family="Helvetica,sans-Serif" font-size="12.00">description </text>
<text text-anchor="start" x="328.66" y="-1376.14" font-family="Helvetica,sans-Serif" font-weight="bold" font-size="12.00">text</text>
</g>
<!-- deriv_cd -->
<g id="node7" class="node">
<title>deriv_cd</title>
<path fill="none" stroke="black" d="M637.25,-1249.77C637.25,-1249.77 757.25,-1249.77 757.25,-1249.77 763.25,-1249.77 769.25,-1255.77 769.25,-1261.77 769.25,-1261.77 769.25,-1307.77 769.25,-1307.77 769.25,-1313.77 763.25,-1319.77 757.25,-1319.77 757.25,-1319.77 637.25,-1319.77 637.25,-1319.77 631.25,-1319.77 625.25,-1313.77 625.25,-1307.77 625.25,-1307.77 625.25,-1261.77 625.25,-1261.77 625.25,-1255.77 631.25,-1249.77 637.25,-1249.77"/>
<text text-anchor="start" x="667.25" y="-1299.37" font-family="Helvetica,sans-Serif" font-weight="bold" font-size="13.00">deriv_cd</text>
<polyline fill="none" stroke="black" points="625.25,-1289.77 769.25,-1289.77 "/>
<text text-anchor="start" x="632.25" y="-1276.17" font-family="Helvetica,sans-Serif" font-size="12.00">id* </text>
<text text-anchor="start" x="653.25" y="-1276.17" font-family="Helvetica,sans-Serif" font-weight="bold" font-size="12.00">text</text>
<text text-anchor="start" x="632.25" y="-1259.17" font-family="Helvetica,sans-Serif" font-size="12.00">description </text>
<text text-anchor="start" x="702.25" y="-1259.17" font-family="Helvetica,sans-Serif" font-weight="bold" font-size="12.00">text</text>
</g>
<!-- nut_data -->
<g id="node8" class="node">
<title>nut_data</title>
<path fill="none" stroke="black" d="M309.32,-879.67C309.32,-879.67 429.32,-879.67 429.32,-879.67 435.32,-879.67 441.32,-885.67 441.32,-891.67 441.32,-891.67 441.32,-1209.67 441.32,-1209.67 441.32,-1215.67 435.32,-1221.67 429.32,-1221.67 429.32,-1221.67 309.32,-1221.67 309.32,-1221.67 303.32,-1221.67 297.32,-1215.67 297.32,-1209.67 297.32,-1209.67 297.32,-891.67 297.32,-891.67 297.32,-885.67 303.32,-879.67 309.32,-879.67"/>
<text text-anchor="start" x="337.32" y="-1201.27" font-family="Helvetica,sans-Serif" font-weight="bold" font-size="13.00">nut_data</text>
<polyline fill="none" stroke="black" points="297.32,-1191.67 441.32,-1191.67 "/>
<text text-anchor="start" x="304.32" y="-1178.07" font-family="Helvetica,sans-Serif" font-size="12.00">food_id </text>
<text text-anchor="start" x="352.32" y="-1178.07" font-family="Helvetica,sans-Serif" font-weight="bold" font-size="12.00">int</text>
<text text-anchor="start" x="304.32" y="-1161.07" font-family="Helvetica,sans-Serif" font-size="12.00">nutr_id </text>
<text text-anchor="start" x="350.32" y="-1161.07" font-family="Helvetica,sans-Serif" font-weight="bold" font-size="12.00">int</text>
<text text-anchor="start" x="304.32" y="-1144.07" font-family="Helvetica,sans-Serif" font-size="12.00">nutr_val </text>
<text text-anchor="start" x="356.32" y="-1144.07" font-family="Helvetica,sans-Serif" font-weight="bold" font-size="12.00">float</text>
<text text-anchor="start" x="304.32" y="-1127.07" font-family="Helvetica,sans-Serif" font-size="12.00">num_data_pts </text>
<text text-anchor="start" x="392.32" y="-1127.07" font-family="Helvetica,sans-Serif" font-weight="bold" font-size="12.00">int</text>
<text text-anchor="start" x="304.32" y="-1110.07" font-family="Helvetica,sans-Serif" font-size="12.00">std_err </text>
<text text-anchor="start" x="350.32" y="-1110.07" font-family="Helvetica,sans-Serif" font-weight="bold" font-size="12.00">float</text>
<text text-anchor="start" x="304.32" y="-1093.07" font-family="Helvetica,sans-Serif" font-size="12.00">src_cd </text>
<text text-anchor="start" x="346.32" y="-1093.07" font-family="Helvetica,sans-Serif" font-weight="bold" font-size="12.00">text</text>
<text text-anchor="start" x="304.32" y="-1076.07" font-family="Helvetica,sans-Serif" font-size="12.00">deriv_cd </text>
<text text-anchor="start" x="359.32" y="-1076.07" font-family="Helvetica,sans-Serif" font-weight="bold" font-size="12.00">text</text>
<text text-anchor="start" x="304.32" y="-1059.07" font-family="Helvetica,sans-Serif" font-size="12.00">ref_food_id </text>
<text text-anchor="start" x="374.32" y="-1059.07" font-family="Helvetica,sans-Serif" font-weight="bold" font-size="12.00">int</text>
<text text-anchor="start" x="304.32" y="-1042.07" font-family="Helvetica,sans-Serif" font-size="12.00">add_nutr_mark </text>
<text text-anchor="start" x="399.32" y="-1042.07" font-family="Helvetica,sans-Serif" font-weight="bold" font-size="12.00">text</text>
<text text-anchor="start" x="304.32" y="-1025.07" font-family="Helvetica,sans-Serif" font-size="12.00">num_studies </text>
<text text-anchor="start" x="383.32" y="-1025.07" font-family="Helvetica,sans-Serif" font-weight="bold" font-size="12.00">int</text>
<text text-anchor="start" x="304.32" y="-1008.07" font-family="Helvetica,sans-Serif" font-size="12.00">min </text>
<text text-anchor="start" x="331.32" y="-1008.07" font-family="Helvetica,sans-Serif" font-weight="bold" font-size="12.00">float</text>
<text text-anchor="start" x="304.32" y="-991.07" font-family="Helvetica,sans-Serif" font-size="12.00">max </text>
<text text-anchor="start" x="335.32" y="-991.07" font-family="Helvetica,sans-Serif" font-weight="bold" font-size="12.00">float</text>
<text text-anchor="start" x="304.32" y="-974.07" font-family="Helvetica,sans-Serif" font-size="12.00">df </text>
<text text-anchor="start" x="320.32" y="-974.07" font-family="Helvetica,sans-Serif" font-weight="bold" font-size="12.00">long</text>
<text text-anchor="start" x="304.32" y="-957.07" font-family="Helvetica,sans-Serif" font-size="12.00">low_eb </text>
<text text-anchor="start" x="350.32" y="-957.07" font-family="Helvetica,sans-Serif" font-weight="bold" font-size="12.00">float</text>
<text text-anchor="start" x="304.32" y="-940.07" font-family="Helvetica,sans-Serif" font-size="12.00">up_eb </text>
<text text-anchor="start" x="344.32" y="-940.07" font-family="Helvetica,sans-Serif" font-weight="bold" font-size="12.00">float</text>
<text text-anchor="start" x="304.32" y="-923.07" font-family="Helvetica,sans-Serif" font-size="12.00">stat_cmt </text>
<text text-anchor="start" x="360.32" y="-923.07" font-family="Helvetica,sans-Serif" font-weight="bold" font-size="12.00">text</text>
<text text-anchor="start" x="304.32" y="-906.07" font-family="Helvetica,sans-Serif" font-size="12.00">add_mod_date </text>
<text text-anchor="start" x="397.32" y="-906.07" font-family="Helvetica,sans-Serif" font-weight="bold" font-size="12.00">date</text>
<text text-anchor="start" x="304.32" y="-889.07" font-family="Helvetica,sans-Serif" font-size="12.00">cc </text>
<text text-anchor="start" x="322.32" y="-889.07" font-family="Helvetica,sans-Serif" font-weight="bold" font-size="12.00">text</text>
</g>
<!-- nut_data&#45;&gt;nutr_def -->
<g id="edge4" class="edge">
<title>nut_data&#45;&gt;nutr_def</title>
<path fill="none" stroke="black" stroke-width="0.9" d="M297.07,-975.02C253.67,-929.57 198.39,-871.68 153.72,-824.9"/>
<polygon fill="black" stroke="black" stroke-width="0.9" points="155.59,-822.81 148.04,-818.96 151.54,-826.68 155.59,-822.81"/>
</g>
<!-- nut_data&#45;&gt;food_des -->
<g id="edge5" class="edge">
<title>nut_data&#45;&gt;food_des</title>
<path fill="none" stroke="black" stroke-width="0.9" d="M441.45,-889.9C461.84,-844.46 483.89,-795.3 503.83,-750.87"/>
<polygon fill="black" stroke="black" stroke-width="0.9" points="506.41,-751.94 507.13,-743.49 501.31,-749.65 506.41,-751.94"/>
</g>
<!-- nut_data&#45;&gt;src_cd -->
<g id="edge3" class="edge">
<title>nut_data&#45;&gt;src_cd</title>
<path fill="none" stroke="black" stroke-width="0.9" d="M347.06,-1221.84C340.45,-1272.64 333.78,-1323.94 329.26,-1358.68"/>
<polygon fill="black" stroke="black" stroke-width="0.9" points="326.47,-1358.42 328.21,-1366.71 332.02,-1359.14 326.47,-1358.42"/>
</g>
<!-- nut_data&#45;&gt;deriv_cd -->
<g id="edge2" class="edge">
<title>nut_data&#45;&gt;deriv_cd</title>
<path fill="none" stroke="black" stroke-width="0.9" d="M441.69,-1102.34C501.87,-1145.29 586.27,-1205.55 641.35,-1244.87"/>
<polygon fill="black" stroke="black" stroke-width="0.9" points="639.78,-1247.19 647.92,-1249.56 643.04,-1242.63 639.78,-1247.19"/>
</g>
<!-- lang_desc -->
<g id="node9" class="node">
<title>lang_desc</title>
<path fill="none" stroke="black" d="M796.72,-0.95C796.72,-0.95 916.72,-0.95 916.72,-0.95 922.72,-0.95 928.72,-6.95 928.72,-12.95 928.72,-12.95 928.72,-58.95 928.72,-58.95 928.72,-64.95 922.72,-70.95 916.72,-70.95 916.72,-70.95 796.72,-70.95 796.72,-70.95 790.72,-70.95 784.72,-64.95 784.72,-58.95 784.72,-58.95 784.72,-12.95 784.72,-12.95 784.72,-6.95 790.72,-0.95 796.72,-0.95"/>
<text text-anchor="start" x="820.72" y="-50.55" font-family="Helvetica,sans-Serif" font-weight="bold" font-size="13.00">lang_desc</text>
<polyline fill="none" stroke="black" points="784.72,-40.95 928.72,-40.95 "/>
<text text-anchor="start" x="791.72" y="-27.35" font-family="Helvetica,sans-Serif" font-size="12.00">id* </text>
<text text-anchor="start" x="812.72" y="-27.35" font-family="Helvetica,sans-Serif" font-weight="bold" font-size="12.00">text</text>
<text text-anchor="start" x="791.72" y="-10.35" font-family="Helvetica,sans-Serif" font-size="12.00">description </text>
<text text-anchor="start" x="861.72" y="-10.35" font-family="Helvetica,sans-Serif" font-weight="bold" font-size="12.00">text</text>
</g>
<!-- langual -->
<g id="node10" class="node">
<title>langual</title>
<path fill="none" stroke="black" d="M501.46,-271.92C501.46,-271.92 621.46,-271.92 621.46,-271.92 627.46,-271.92 633.46,-277.92 633.46,-283.92 633.46,-283.92 633.46,-329.92 633.46,-329.92 633.46,-335.92 627.46,-341.92 621.46,-341.92 621.46,-341.92 501.46,-341.92 501.46,-341.92 495.46,-341.92 489.46,-335.92 489.46,-329.92 489.46,-329.92 489.46,-283.92 489.46,-283.92 489.46,-277.92 495.46,-271.92 501.46,-271.92"/>
<text text-anchor="start" x="534.46" y="-321.52" font-family="Helvetica,sans-Serif" font-weight="bold" font-size="13.00">langual</text>
<polyline fill="none" stroke="black" points="489.46,-311.92 633.46,-311.92 "/>
<text text-anchor="start" x="496.46" y="-298.32" font-family="Helvetica,sans-Serif" font-size="12.00">food_id </text>
<text text-anchor="start" x="544.46" y="-298.32" font-family="Helvetica,sans-Serif" font-weight="bold" font-size="12.00">int</text>
<text text-anchor="start" x="496.46" y="-281.32" font-family="Helvetica,sans-Serif" font-size="12.00">factor_id </text>
<text text-anchor="start" x="553.46" y="-281.32" font-family="Helvetica,sans-Serif" font-weight="bold" font-size="12.00">text</text>
</g>
<!-- langual&#45;&gt;food_des -->
<g id="edge7" class="edge">
<title>langual&#45;&gt;food_des</title>
<path fill="none" stroke="black" stroke-width="0.9" d="M562.31,-342.13C563.03,-371.88 564.12,-416.59 565.2,-460.81"/>
<polygon fill="black" stroke="black" stroke-width="0.9" points="562.4,-461.13 565.4,-469.06 568,-460.99 562.4,-461.13"/>
</g>
<!-- langual&#45;&gt;lang_desc -->
<g id="edge6" class="edge">
<title>langual&#45;&gt;lang_desc</title>
<path fill="none" stroke="black" stroke-width="0.9" d="M599.75,-271.77C654.4,-221.62 754.53,-129.73 812.34,-76.68"/>
<polygon fill="black" stroke="black" stroke-width="0.9" points="814.49,-78.51 818.49,-71.03 810.7,-74.38 814.49,-78.51"/>
</g>
<!-- data_src -->
<g id="node11" class="node">
<title>data_src</title>
<path fill="none" stroke="black" d="M125.56,-7.99C125.56,-7.99 245.56,-7.99 245.56,-7.99 251.56,-7.99 257.56,-13.99 257.56,-19.99 257.56,-19.99 257.56,-184.99 257.56,-184.99 257.56,-190.99 251.56,-196.99 245.56,-196.99 245.56,-196.99 125.56,-196.99 125.56,-196.99 119.56,-196.99 113.56,-190.99 113.56,-184.99 113.56,-184.99 113.56,-19.99 113.56,-19.99 113.56,-13.99 119.56,-7.99 125.56,-7.99"/>
<text text-anchor="start" x="154.56" y="-176.59" font-family="Helvetica,sans-Serif" font-weight="bold" font-size="13.00">data_src</text>
<polyline fill="none" stroke="black" points="113.56,-166.99 257.56,-166.99 "/>
<text text-anchor="start" x="120.56" y="-152.89" font-family="Helvetica,sans-Serif" font-size="12.00">id* </text>
<text text-anchor="start" x="141.56" y="-152.89" font-family="Helvetica,sans-Serif" font-weight="bold" font-size="12.00">text</text>
<text text-anchor="start" x="120.56" y="-135.89" font-family="Helvetica,sans-Serif" font-size="12.00">authors </text>
<text text-anchor="start" x="170.56" y="-135.89" font-family="Helvetica,sans-Serif" font-weight="bold" font-size="12.00">text</text>
<text text-anchor="start" x="120.56" y="-118.89" font-family="Helvetica,sans-Serif" font-size="12.00">title </text>
<text text-anchor="start" x="147.56" y="-118.89" font-family="Helvetica,sans-Serif" font-weight="bold" font-size="12.00">text</text>
<text text-anchor="start" x="120.56" y="-101.89" font-family="Helvetica,sans-Serif" font-size="12.00">year </text>
<text text-anchor="start" x="151.56" y="-101.89" font-family="Helvetica,sans-Serif" font-weight="bold" font-size="12.00">text</text>
<text text-anchor="start" x="120.56" y="-84.89" font-family="Helvetica,sans-Serif" font-size="12.00">journal </text>
<text text-anchor="start" x="165.56" y="-84.89" font-family="Helvetica,sans-Serif" font-weight="bold" font-size="12.00">text</text>
<text text-anchor="start" x="120.56" y="-67.89" font-family="Helvetica,sans-Serif" font-size="12.00">vol_city </text>
<text text-anchor="start" x="169.56" y="-67.89" font-family="Helvetica,sans-Serif" font-weight="bold" font-size="12.00">text</text>
<text text-anchor="start" x="120.56" y="-50.89" font-family="Helvetica,sans-Serif" font-size="12.00">issue_state </text>
<text text-anchor="start" x="190.56" y="-50.89" font-family="Helvetica,sans-Serif" font-weight="bold" font-size="12.00">text</text>
<text text-anchor="start" x="120.56" y="-33.89" font-family="Helvetica,sans-Serif" font-size="12.00">start_page </text>
<text text-anchor="start" x="188.56" y="-33.89" font-family="Helvetica,sans-Serif" font-weight="bold" font-size="12.00">text</text>
<text text-anchor="start" x="120.56" y="-16.89" font-family="Helvetica,sans-Serif" font-size="12.00">end_page </text>
<text text-anchor="start" x="183.56" y="-16.89" font-family="Helvetica,sans-Serif" font-weight="bold" font-size="12.00">text</text>
</g>
<!-- datsrcln -->
<g id="node12" class="node">
<title>datsrcln</title>
<path fill="none" stroke="black" d="M76.95,-321.59C76.95,-321.59 196.95,-321.59 196.95,-321.59 202.95,-321.59 208.95,-327.59 208.95,-333.59 208.95,-333.59 208.95,-396.59 208.95,-396.59 208.95,-402.59 202.95,-408.59 196.95,-408.59 196.95,-408.59 76.95,-408.59 76.95,-408.59 70.95,-408.59 64.95,-402.59 64.95,-396.59 64.95,-396.59 64.95,-333.59 64.95,-333.59 64.95,-327.59 70.95,-321.59 76.95,-321.59"/>
<text text-anchor="start" x="106.95" y="-388.19" font-family="Helvetica,sans-Serif" font-weight="bold" font-size="13.00">datsrcln</text>
<polyline fill="none" stroke="black" points="64.95,-378.59 208.95,-378.59 "/>
<text text-anchor="start" x="71.95" y="-364.49" font-family="Helvetica,sans-Serif" font-size="12.00">food_id </text>
<text text-anchor="start" x="119.95" y="-364.49" font-family="Helvetica,sans-Serif" font-weight="bold" font-size="12.00">int</text>
<text text-anchor="start" x="71.95" y="-347.49" font-family="Helvetica,sans-Serif" font-size="12.00">nutr_id </text>
<text text-anchor="start" x="117.95" y="-347.49" font-family="Helvetica,sans-Serif" font-weight="bold" font-size="12.00">int</text>
<text text-anchor="start" x="71.95" y="-330.49" font-family="Helvetica,sans-Serif" font-size="12.00">data_src_id </text>
<text text-anchor="start" x="142.95" y="-330.49" font-family="Helvetica,sans-Serif" font-weight="bold" font-size="12.00">text</text>
</g>
<!-- datsrcln&#45;&gt;nutr_def -->
<g id="edge9" class="edge">
<title>datsrcln&#45;&gt;nutr_def</title>
<path fill="none" stroke="black" stroke-width="0.9" d="M129.66,-408.63C120.32,-464.44 103.83,-563 91.21,-638.42"/>
<polygon fill="black" stroke="black" stroke-width="0.9" points="88.4,-638.22 89.84,-646.57 93.93,-639.14 88.4,-638.22"/>
</g>
<!-- datsrcln&#45;&gt;food_des -->
<g id="edge10" class="edge">
<title>datsrcln&#45;&gt;food_des</title>
<path fill="none" stroke="black" stroke-width="0.9" d="M209.22,-405.45C286.71,-448.72 409.36,-517.21 489.45,-561.94"/>
<polygon fill="black" stroke="black" stroke-width="0.9" points="488.23,-564.46 496.58,-565.92 490.96,-559.57 488.23,-564.46"/>
</g>
<!-- datsrcln&#45;&gt;data_src -->
<g id="edge8" class="edge">
<title>datsrcln&#45;&gt;data_src</title>
<path fill="none" stroke="black" stroke-width="0.9" d="M145.03,-321.43C150.89,-289.78 159.07,-245.62 166.54,-205.25"/>
<polygon fill="black" stroke="black" stroke-width="0.9" points="169.32,-205.61 168.02,-197.23 163.82,-204.59 169.32,-205.61"/>
</g>
<!-- footnote -->
<g id="node13" class="node">
<title>footnote</title>
<path fill="none" stroke="black" d="M191.99,-565.29C191.99,-565.29 311.99,-565.29 311.99,-565.29 317.99,-565.29 323.99,-571.29 323.99,-577.29 323.99,-577.29 323.99,-674.29 323.99,-674.29 323.99,-680.29 317.99,-686.29 311.99,-686.29 311.99,-686.29 191.99,-686.29 191.99,-686.29 185.99,-686.29 179.99,-680.29 179.99,-674.29 179.99,-674.29 179.99,-577.29 179.99,-577.29 179.99,-571.29 185.99,-565.29 191.99,-565.29"/>
<text text-anchor="start" x="219.99" y="-665.89" font-family="Helvetica,sans-Serif" font-weight="bold" font-size="13.00">footnote</text>
<polyline fill="none" stroke="black" points="179.99,-656.29 323.99,-656.29 "/>
<text text-anchor="start" x="186.99" y="-642.19" font-family="Helvetica,sans-Serif" font-size="12.00">food_id </text>
<text text-anchor="start" x="234.99" y="-642.19" font-family="Helvetica,sans-Serif" font-weight="bold" font-size="12.00">int</text>
<text text-anchor="start" x="186.99" y="-625.19" font-family="Helvetica,sans-Serif" font-size="12.00">footnt_no </text>
<text text-anchor="start" x="247.99" y="-625.19" font-family="Helvetica,sans-Serif" font-weight="bold" font-size="12.00">int</text>
<text text-anchor="start" x="186.99" y="-608.19" font-family="Helvetica,sans-Serif" font-size="12.00">footnt_typ </text>
<text text-anchor="start" x="251.99" y="-608.19" font-family="Helvetica,sans-Serif" font-weight="bold" font-size="12.00">text</text>
<text text-anchor="start" x="186.99" y="-591.19" font-family="Helvetica,sans-Serif" font-size="12.00">nutr_id </text>
<text text-anchor="start" x="232.99" y="-591.19" font-family="Helvetica,sans-Serif" font-weight="bold" font-size="12.00">int</text>
<text text-anchor="start" x="186.99" y="-574.19" font-family="Helvetica,sans-Serif" font-size="12.00">footnt_txt </text>
<text text-anchor="start" x="248.99" y="-574.19" font-family="Helvetica,sans-Serif" font-weight="bold" font-size="12.00">text</text>
</g>
<!-- footnote&#45;&gt;nutr_def -->
<g id="edge11" class="edge">
<title>footnote&#45;&gt;nutr_def</title>
<path fill="none" stroke="black" stroke-width="0.9" d="M179.84,-672.64C171.71,-677.93 163.38,-683.33 155.15,-688.68"/>
<polygon fill="black" stroke="black" stroke-width="0.9" points="153.44,-686.45 148.25,-693.16 156.49,-691.15 153.44,-686.45"/>
</g>
<!-- footnote&#45;&gt;food_des -->
<g id="edge12" class="edge">
<title>footnote&#45;&gt;food_des</title>
<path fill="none" stroke="black" stroke-width="0.9" d="M324.26,-621.32C373.22,-618.29 437.95,-614.29 488.51,-611.17"/>
<polygon fill="black" stroke="black" stroke-width="0.9" points="488.68,-613.96 496.5,-610.67 488.34,-608.37 488.68,-613.96"/>
</g>
<!-- serv_desc -->
<g id="node14" class="node">
<title>serv_desc</title>
<path fill="none" stroke="black" d="M93.98,-1027.27C93.98,-1027.27 213.98,-1027.27 213.98,-1027.27 219.98,-1027.27 225.98,-1033.27 225.98,-1039.27 225.98,-1039.27 225.98,-1085.27 225.98,-1085.27 225.98,-1091.27 219.98,-1097.27 213.98,-1097.27 213.98,-1097.27 93.98,-1097.27 93.98,-1097.27 87.98,-1097.27 81.98,-1091.27 81.98,-1085.27 81.98,-1085.27 81.98,-1039.27 81.98,-1039.27 81.98,-1033.27 87.98,-1027.27 93.98,-1027.27"/>
<text text-anchor="start" x="117.98" y="-1076.87" font-family="Helvetica,sans-Serif" font-weight="bold" font-size="13.00">serv_desc</text>
<polyline fill="none" stroke="black" points="81.98,-1067.27 225.98,-1067.27 "/>
<text text-anchor="start" x="88.98" y="-1053.67" font-family="Helvetica,sans-Serif" font-size="12.00">id* </text>
<text text-anchor="start" x="109.98" y="-1053.67" font-family="Helvetica,sans-Serif" font-weight="bold" font-size="12.00">integer</text>
<text text-anchor="start" x="88.98" y="-1036.67" font-family="Helvetica,sans-Serif" font-size="12.00">msre_desc </text>
<text text-anchor="start" x="156.98" y="-1036.67" font-family="Helvetica,sans-Serif" font-weight="bold" font-size="12.00">text</text>
</g>
<!-- serving -->
<g id="node15" class="node">
<title>serving</title>
<path fill="none" stroke="black" d="M545.41,-799.49C545.41,-799.49 665.41,-799.49 665.41,-799.49 671.41,-799.49 677.41,-805.49 677.41,-811.49 677.41,-811.49 677.41,-908.49 677.41,-908.49 677.41,-914.49 671.41,-920.49 665.41,-920.49 665.41,-920.49 545.41,-920.49 545.41,-920.49 539.41,-920.49 533.41,-914.49 533.41,-908.49 533.41,-908.49 533.41,-811.49 533.41,-811.49 533.41,-805.49 539.41,-799.49 545.41,-799.49"/>
<text text-anchor="start" x="578.41" y="-900.09" font-family="Helvetica,sans-Serif" font-weight="bold" font-size="13.00">serving</text>
<polyline fill="none" stroke="black" points="533.41,-890.49 677.41,-890.49 "/>
<text text-anchor="start" x="540.41" y="-876.39" font-family="Helvetica,sans-Serif" font-size="12.00">food_id </text>
<text text-anchor="start" x="588.41" y="-876.39" font-family="Helvetica,sans-Serif" font-weight="bold" font-size="12.00">int</text>
<text text-anchor="start" x="540.41" y="-859.39" font-family="Helvetica,sans-Serif" font-size="12.00">msre_id </text>
<text text-anchor="start" x="591.41" y="-859.39" font-family="Helvetica,sans-Serif" font-weight="bold" font-size="12.00">int</text>
<text text-anchor="start" x="540.41" y="-842.39" font-family="Helvetica,sans-Serif" font-size="12.00">grams </text>
<text text-anchor="start" x="583.41" y="-842.39" font-family="Helvetica,sans-Serif" font-weight="bold" font-size="12.00">float</text>
<text text-anchor="start" x="540.41" y="-825.39" font-family="Helvetica,sans-Serif" font-size="12.00">num_data_pts </text>
<text text-anchor="start" x="628.41" y="-825.39" font-family="Helvetica,sans-Serif" font-weight="bold" font-size="12.00">int</text>
<text text-anchor="start" x="540.41" y="-808.39" font-family="Helvetica,sans-Serif" font-size="12.00">std_dev </text>
<text text-anchor="start" x="590.41" y="-808.39" font-family="Helvetica,sans-Serif" font-weight="bold" font-size="12.00">float</text>
</g>
<!-- serving&#45;&gt;food_des -->
<g id="edge14" class="edge">
<title>serving&#45;&gt;food_des</title>
<path fill="none" stroke="black" stroke-width="0.9" d="M596.63,-799.21C594.51,-784.59 592.16,-768.35 589.75,-751.67"/>
<polygon fill="black" stroke="black" stroke-width="0.9" points="592.48,-750.96 588.57,-743.45 586.94,-751.77 592.48,-750.96"/>
</g>
<!-- serving&#45;&gt;serv_desc -->
<g id="edge13" class="edge">
<title>serving&#45;&gt;serv_desc</title>
<path fill="none" stroke="black" stroke-width="0.9" d="M533.19,-847.31C467,-839.36 368.3,-837.03 294.12,-876.47 235.49,-907.65 194.38,-975.37 172.46,-1019.87"/>
<polygon fill="black" stroke="black" stroke-width="0.9" points="169.94,-1018.65 168.98,-1027.07 174.98,-1021.09 169.94,-1018.65"/>
</g>
</g>
</svg>
