<?xml version="1.0" encoding="UTF-8" standalone="no"?>
<!DOCTYPE svg PUBLIC "-//W3C//DTD SVG 1.1//EN"
 "http://www.w3.org/Graphics/SVG/1.1/DTD/svg11.dtd">
<!-- Generated by graphviz version 2.43.0 (0)
 -->
<!-- Title: undefined Pages: 1 -->
<svg width="1003pt" height="1501pt"
 viewBox="0.00 0.00 1002.60 1500.60" xmlns="http://www.w3.org/2000/svg" xmlns:xlink="http://www.w3.org/1999/xlink">
<g id="graph0" class="graph" transform="scale(1 1) rotate(0) translate(28.8 1450.8)">
<title>undefined</title>
<polygon fill="white" stroke="transparent" points="-28.8,49.8 -28.8,-1450.8 973.8,-1450.8 973.8,49.8 -28.8,49.8"/>
<text text-anchor="start" x="435" y="12.6" font-family="Helvetica,sans-Serif" font-weight="bold" font-size="12.00">usda.sqlite</text>
<!-- version -->
<g id="node1" class="node">
<title>version</title>
<path fill="none" stroke="black" d="M813.24,-356.64C813.24,-356.64 933.24,-356.64 933.24,-356.64 939.24,-356.64 945.24,-362.64 945.24,-368.64 945.24,-368.64 945.24,-448.64 945.24,-448.64 945.24,-454.64 939.24,-460.64 933.24,-460.64 933.24,-460.64 813.24,-460.64 813.24,-460.64 807.24,-460.64 801.24,-454.64 801.24,-448.64 801.24,-448.64 801.24,-368.64 801.24,-368.64 801.24,-362.64 807.24,-356.64 813.24,-356.64"/>
<text text-anchor="start" x="846.24" y="-440.24" font-family="Helvetica,sans-Serif" font-weight="bold" font-size="13.00">version</text>
<polyline fill="none" stroke="black" points="801.24,-430.64 945.24,-430.64 "/>
<text text-anchor="start" x="808.24" y="-417.04" font-family="Helvetica,sans-Serif" font-size="12.00">id* </text>
<text text-anchor="start" x="829.24" y="-417.04" font-family="Helvetica,sans-Serif" font-weight="bold" font-size="12.00">integer</text>
<text text-anchor="start" x="808.24" y="-400.04" font-family="Helvetica,sans-Serif" font-size="12.00">version </text>
<text text-anchor="start" x="856.24" y="-400.04" font-family="Helvetica,sans-Serif" font-weight="bold" font-size="12.00">text</text>
<text text-anchor="start" x="808.24" y="-383.04" font-family="Helvetica,sans-Serif" font-size="12.00">created </text>
<text text-anchor="start" x="858.24" y="-383.04" font-family="Helvetica,sans-Serif" font-weight="bold" font-size="12.00">timestamp</text>
<text text-anchor="start" x="808.24" y="-366.04" font-family="Helvetica,sans-Serif" font-size="12.00">notes </text>
<text text-anchor="start" x="845.24" y="-366.04" font-family="Helvetica,sans-Serif" font-weight="bold" font-size="12.00">text</text>
</g>
<!-- nutr_def -->
<g id="node2" class="node">
<title>nutr_def</title>
<path fill="none" stroke="black" d="M11.61,-647.36C11.61,-647.36 131.61,-647.36 131.61,-647.36 137.61,-647.36 143.61,-653.36 143.61,-659.36 143.61,-659.36 143.61,-807.36 143.61,-807.36 143.61,-813.36 137.61,-819.36 131.61,-819.36 131.61,-819.36 11.61,-819.36 11.61,-819.36 5.61,-819.36 -0.39,-813.36 -0.39,-807.36 -0.39,-807.36 -0.39,-659.36 -0.39,-659.36 -0.39,-653.36 5.61,-647.36 11.61,-647.36"/>
<text text-anchor="start" x="40.61" y="-798.96" font-family="Helvetica,sans-Serif" font-weight="bold" font-size="13.00">nutr_def</text>
<polyline fill="none" stroke="black" points="-0.39,-789.36 143.61,-789.36 "/>
<text text-anchor="start" x="6.61" y="-775.76" font-family="Helvetica,sans-Serif" font-size="12.00">id* </text>
<text text-anchor="start" x="27.61" y="-775.76" font-family="Helvetica,sans-Serif" font-weight="bold" font-size="12.00">integer</text>
<text text-anchor="start" x="6.61" y="-758.76" font-family="Helvetica,sans-Serif" font-size="12.00">rda </text>
<text text-anchor="start" x="30.61" y="-758.76" font-family="Helvetica,sans-Serif" font-weight="bold" font-size="12.00">float</text>
<text text-anchor="start" x="6.61" y="-741.76" font-family="Helvetica,sans-Serif" font-size="12.00">unit </text>
<text text-anchor="start" x="33.61" y="-741.76" font-family="Helvetica,sans-Serif" font-weight="bold" font-size="12.00">text</text>
<text text-anchor="start" x="6.61" y="-724.76" font-family="Helvetica,sans-Serif" font-size="12.00">tagname </text>
<text text-anchor="start" x="64.61" y="-724.76" font-family="Helvetica,sans-Serif" font-weight="bold" font-size="12.00">text</text>
<text text-anchor="start" x="6.61" y="-707.76" font-family="Helvetica,sans-Serif" font-size="12.00">nutr_desc </text>
<text text-anchor="start" x="69.61" y="-707.76" font-family="Helvetica,sans-Serif" font-weight="bold" font-size="12.00">text</text>
<text text-anchor="start" x="6.61" y="-690.76" font-family="Helvetica,sans-Serif" font-size="12.00">num_dec </text>
<text text-anchor="start" x="65.61" y="-690.76" font-family="Helvetica,sans-Serif" font-weight="bold" font-size="12.00">int</text>
<text text-anchor="start" x="6.61" y="-673.76" font-family="Helvetica,sans-Serif" font-size="12.00">sr_order </text>
<text text-anchor="start" x="60.61" y="-673.76" font-family="Helvetica,sans-Serif" font-weight="bold" font-size="12.00">int</text>
<text text-anchor="start" x="6.61" y="-656.76" font-family="Helvetica,sans-Serif" font-size="12.00">flav_class </text>
<text text-anchor="start" x="67.61" y="-656.76" font-family="Helvetica,sans-Serif" font-weight="bold" font-size="12.00">text</text>
</g>
<!-- fdgrp -->
<g id="node3" class="node">
<title>fdgrp</title>
<path fill="none" stroke="black" d="M805.78,-537.67C805.78,-537.67 925.78,-537.67 925.78,-537.67 931.78,-537.67 937.78,-543.67 937.78,-549.67 937.78,-549.67 937.78,-595.67 937.78,-595.67 937.78,-601.67 931.78,-607.67 925.78,-607.67 925.78,-607.67 805.78,-607.67 805.78,-607.67 799.78,-607.67 793.78,-601.67 793.78,-595.67 793.78,-595.67 793.78,-549.67 793.78,-549.67 793.78,-543.67 799.78,-537.67 805.78,-537.67"/>
<text text-anchor="start" x="845.78" y="-587.27" font-family="Helvetica,sans-Serif" font-weight="bold" font-size="13.00">fdgrp</text>
<polyline fill="none" stroke="black" points="793.78,-577.67 937.78,-577.67 "/>
<text text-anchor="start" x="800.78" y="-564.07" font-family="Helvetica,sans-Serif" font-size="12.00">id* </text>
<text text-anchor="start" x="821.78" y="-564.07" font-family="Helvetica,sans-Serif" font-weight="bold" font-size="12.00">integer</text>
<text text-anchor="start" x="800.78" y="-547.07" font-family="Helvetica,sans-Serif" font-size="12.00">fdgrp_desc </text>
<text text-anchor="start" x="870.78" y="-547.07" font-family="Helvetica,sans-Serif" font-weight="bold" font-size="12.00">text</text>
</g>
<!-- food_des -->
<g id="node4" class="node">
<title>food_des</title>
<path fill="none" stroke="black" d="M500.81,-462.69C500.81,-462.69 620.81,-462.69 620.81,-462.69 626.81,-462.69 632.81,-468.69 632.81,-474.69 632.81,-474.69 632.81,-724.69 632.81,-724.69 632.81,-730.69 626.81,-736.69 620.81,-736.69 620.81,-736.69 500.81,-736.69 500.81,-736.69 494.81,-736.69 488.81,-730.69 488.81,-724.69 488.81,-724.69 488.81,-474.69 488.81,-474.69 488.81,-468.69 494.81,-462.69 500.81,-462.69"/>
<text text-anchor="start" x="527.81" y="-716.29" font-family="Helvetica,sans-Serif" font-weight="bold" font-size="13.00">food_des</text>
<polyline fill="none" stroke="black" points="488.81,-706.69 632.81,-706.69 "/>
<text text-anchor="start" x="495.81" y="-693.09" font-family="Helvetica,sans-Serif" font-size="12.00">id* </text>
<text text-anchor="start" x="516.81" y="-693.09" font-family="Helvetica,sans-Serif" font-weight="bold" font-size="12.00">integer</text>
<text text-anchor="start" x="495.81" y="-676.09" font-family="Helvetica,sans-Serif" font-size="12.00">fdgrp_id </text>
<text text-anchor="start" x="548.81" y="-676.09" font-family="Helvetica,sans-Serif" font-weight="bold" font-size="12.00">int</text>
<text text-anchor="start" x="495.81" y="-659.09" font-family="Helvetica,sans-Serif" font-size="12.00">long_desc </text>
<text text-anchor="start" x="559.81" y="-659.09" font-family="Helvetica,sans-Serif" font-weight="bold" font-size="12.00">text</text>
<text text-anchor="start" x="495.81" y="-642.09" font-family="Helvetica,sans-Serif" font-size="12.00">shrt_desc </text>
<text text-anchor="start" x="556.81" y="-642.09" font-family="Helvetica,sans-Serif" font-weight="bold" font-size="12.00">text</text>
<text text-anchor="start" x="495.81" y="-625.09" font-family="Helvetica,sans-Serif" font-size="12.00">com_name </text>
<text text-anchor="start" x="566.81" y="-625.09" font-family="Helvetica,sans-Serif" font-weight="bold" font-size="12.00">text</text>
<text text-anchor="start" x="495.81" y="-608.09" font-family="Helvetica,sans-Serif" font-size="12.00">manufac_name </text>
<text text-anchor="start" x="593.81" y="-608.09" font-family="Helvetica,sans-Serif" font-weight="bold" font-size="12.00">text</text>
<text text-anchor="start" x="495.81" y="-591.09" font-family="Helvetica,sans-Serif" font-size="12.00">survey </text>
<text text-anchor="start" x="539.81" y="-591.09" font-family="Helvetica,sans-Serif" font-weight="bold" font-size="12.00">text</text>
<text text-anchor="start" x="495.81" y="-574.09" font-family="Helvetica,sans-Serif" font-size="12.00">ref_desc </text>
<text text-anchor="start" x="550.81" y="-574.09" font-family="Helvetica,sans-Serif" font-weight="bold" font-size="12.00">text</text>
<text text-anchor="start" x="495.81" y="-557.09" font-family="Helvetica,sans-Serif" font-size="12.00">refuse </text>
<text text-anchor="start" x="537.81" y="-557.09" font-family="Helvetica,sans-Serif" font-weight="bold" font-size="12.00">int</text>
<text text-anchor="start" x="495.81" y="-540.09" font-family="Helvetica,sans-Serif" font-size="12.00">sci_name </text>
<text text-anchor="start" x="556.81" y="-540.09" font-family="Helvetica,sans-Serif" font-weight="bold" font-size="12.00">text</text>
<text text-anchor="start" x="495.81" y="-523.09" font-family="Helvetica,sans-Serif" font-size="12.00">n_factor </text>
<text text-anchor="start" x="549.81" y="-523.09" font-family="Helvetica,sans-Serif" font-weight="bold" font-size="12.00">float</text>
<text text-anchor="start" x="495.81" y="-506.09" font-family="Helvetica,sans-Serif" font-size="12.00">pro_factor </text>
<text text-anchor="start" x="561.81" y="-506.09" font-family="Helvetica,sans-Serif" font-weight="bold" font-size="12.00">float</text>
<text text-anchor="start" x="495.81" y="-489.09" font-family="Helvetica,sans-Serif" font-size="12.00">fat_factor </text>
<text text-anchor="start" x="558.81" y="-489.09" font-family="Helvetica,sans-Serif" font-weight="bold" font-size="12.00">float</text>
<text text-anchor="start" x="495.81" y="-472.09" font-family="Helvetica,sans-Serif" font-size="12.00">cho_factor </text>
<text text-anchor="start" x="563.81" y="-472.09" font-family="Helvetica,sans-Serif" font-weight="bold" font-size="12.00">float</text>
</g>
<!-- food_des&#45;&gt;fdgrp -->
<g id="edge1" class="edge">
<title>food_des&#45;&gt;fdgrp</title>
<path fill="none" stroke="black" stroke-width="0.9" d="M633.08,-593.28C678.96,-589.22 738.37,-583.96 785.67,-579.76"/>
<polygon fill="black" stroke="black" stroke-width="0.9" points="786.04,-582.54 793.76,-579.05 785.54,-576.96 786.04,-582.54"/>
</g>
<!-- src_cd -->
<g id="node5" class="node">
<title>src_cd</title>
<path fill="none" stroke="black" d="M258.49,-1351.29C258.49,-1351.29 378.49,-1351.29 378.49,-1351.29 384.49,-1351.29 390.49,-1357.29 390.49,-1363.29 390.49,-1363.29 390.49,-1409.29 390.49,-1409.29 390.49,-1415.29 384.49,-1421.29 378.49,-1421.29 378.49,-1421.29 258.49,-1421.29 258.49,-1421.29 252.49,-1421.29 246.49,-1415.29 246.49,-1409.29 246.49,-1409.29 246.49,-1363.29 246.49,-1363.29 246.49,-1357.29 252.49,-1351.29 258.49,-1351.29"/>
<text text-anchor="start" x="295.49" y="-1400.89" font-family="Helvetica,sans-Serif" font-weight="bold" font-size="13.00">src_cd</text>
<polyline fill="none" stroke="black" points="246.49,-1391.29 390.49,-1391.29 "/>
<text text-anchor="start" x="253.49" y="-1377.69" font-family="Helvetica,sans-Serif" font-size="12.00">id* </text>
<text text-anchor="start" x="274.49" y="-1377.69" font-family="Helvetica,sans-Serif" font-weight="bold" font-size="12.00">text</text>
<text text-anchor="start" x="253.49" y="-1360.69" font-family="Helvetica,sans-Serif" font-size="12.00">description </text>
<text text-anchor="start" x="323.49" y="-1360.69" font-family="Helvetica,sans-Serif" font-weight="bold" font-size="12.00">text</text>
</g>
<!-- deriv_cd -->
<g id="node6" class="node">
<title>deriv_cd</title>
<path fill="none" stroke="black" d="M627.89,-1235.63C627.89,-1235.63 747.89,-1235.63 747.89,-1235.63 753.89,-1235.63 759.89,-1241.63 759.89,-1247.63 759.89,-1247.63 759.89,-1293.63 759.89,-1293.63 759.89,-1299.63 753.89,-1305.63 747.89,-1305.63 747.89,-1305.63 627.89,-1305.63 627.89,-1305.63 621.89,-1305.63 615.89,-1299.63 615.89,-1293.63 615.89,-1293.63 615.89,-1247.63 615.89,-1247.63 615.89,-1241.63 621.89,-1235.63 627.89,-1235.63"/>
<text text-anchor="start" x="657.89" y="-1285.23" font-family="Helvetica,sans-Serif" font-weight="bold" font-size="13.00">deriv_cd</text>
<polyline fill="none" stroke="black" points="615.89,-1275.63 759.89,-1275.63 "/>
<text text-anchor="start" x="622.89" y="-1262.03" font-family="Helvetica,sans-Serif" font-size="12.00">id* </text>
<text text-anchor="start" x="643.89" y="-1262.03" font-family="Helvetica,sans-Serif" font-weight="bold" font-size="12.00">text</text>
<text text-anchor="start" x="622.89" y="-1245.03" font-family="Helvetica,sans-Serif" font-size="12.00">description </text>
<text text-anchor="start" x="692.89" y="-1245.03" font-family="Helvetica,sans-Serif" font-weight="bold" font-size="12.00">text</text>
</g>
<!-- nut_data -->
<g id="node7" class="node">
<title>nut_data</title>
<path fill="none" stroke="black" d="M303.64,-868.16C303.64,-868.16 423.64,-868.16 423.64,-868.16 429.64,-868.16 435.64,-874.16 435.64,-880.16 435.64,-880.16 435.64,-1198.16 435.64,-1198.16 435.64,-1204.16 429.64,-1210.16 423.64,-1210.16 423.64,-1210.16 303.64,-1210.16 303.64,-1210.16 297.64,-1210.16 291.64,-1204.16 291.64,-1198.16 291.64,-1198.16 291.64,-880.16 291.64,-880.16 291.64,-874.16 297.64,-868.16 303.64,-868.16"/>
<text text-anchor="start" x="331.64" y="-1189.76" font-family="Helvetica,sans-Serif" font-weight="bold" font-size="13.00">nut_data</text>
<polyline fill="none" stroke="black" points="291.64,-1180.16 435.64,-1180.16 "/>
<text text-anchor="start" x="298.64" y="-1166.56" font-family="Helvetica,sans-Serif" font-size="12.00">food_id </text>
<text text-anchor="start" x="346.64" y="-1166.56" font-family="Helvetica,sans-Serif" font-weight="bold" font-size="12.00">int</text>
<text text-anchor="start" x="298.64" y="-1149.56" font-family="Helvetica,sans-Serif" font-size="12.00">nutr_id </text>
<text text-anchor="start" x="344.64" y="-1149.56" font-family="Helvetica,sans-Serif" font-weight="bold" font-size="12.00">int</text>
<text text-anchor="start" x="298.64" y="-1132.56" font-family="Helvetica,sans-Serif" font-size="12.00">nutr_val </text>
<text text-anchor="start" x="350.64" y="-1132.56" font-family="Helvetica,sans-Serif" font-weight="bold" font-size="12.00">float</text>
<text text-anchor="start" x="298.64" y="-1115.56" font-family="Helvetica,sans-Serif" font-size="12.00">num_data_pts </text>
<text text-anchor="start" x="386.64" y="-1115.56" font-family="Helvetica,sans-Serif" font-weight="bold" font-size="12.00">int</text>
<text text-anchor="start" x="298.64" y="-1098.56" font-family="Helvetica,sans-Serif" font-size="12.00">std_err </text>
<text text-anchor="start" x="343.64" y="-1098.56" font-family="Helvetica,sans-Serif" font-weight="bold" font-size="12.00">float</text>
<text text-anchor="start" x="298.64" y="-1081.56" font-family="Helvetica,sans-Serif" font-size="12.00">src_cd </text>
<text text-anchor="start" x="340.64" y="-1081.56" font-family="Helvetica,sans-Serif" font-weight="bold" font-size="12.00">text</text>
<text text-anchor="start" x="298.64" y="-1064.56" font-family="Helvetica,sans-Serif" font-size="12.00">deriv_cd </text>
<text text-anchor="start" x="353.64" y="-1064.56" font-family="Helvetica,sans-Serif" font-weight="bold" font-size="12.00">text</text>
<text text-anchor="start" x="298.64" y="-1047.56" font-family="Helvetica,sans-Serif" font-size="12.00">ref_food_id </text>
<text text-anchor="start" x="368.64" y="-1047.56" font-family="Helvetica,sans-Serif" font-weight="bold" font-size="12.00">int</text>
<text text-anchor="start" x="298.64" y="-1030.56" font-family="Helvetica,sans-Serif" font-size="12.00">add_nutr_mark </text>
<text text-anchor="start" x="393.64" y="-1030.56" font-family="Helvetica,sans-Serif" font-weight="bold" font-size="12.00">text</text>
<text text-anchor="start" x="298.64" y="-1013.56" font-family="Helvetica,sans-Serif" font-size="12.00">num_studies </text>
<text text-anchor="start" x="377.64" y="-1013.56" font-family="Helvetica,sans-Serif" font-weight="bold" font-size="12.00">int</text>
<text text-anchor="start" x="298.64" y="-996.56" font-family="Helvetica,sans-Serif" font-size="12.00">min </text>
<text text-anchor="start" x="325.64" y="-996.56" font-family="Helvetica,sans-Serif" font-weight="bold" font-size="12.00">float</text>
<text text-anchor="start" x="298.64" y="-979.56" font-family="Helvetica,sans-Serif" font-size="12.00">max </text>
<text text-anchor="start" x="329.64" y="-979.56" font-family="Helvetica,sans-Serif" font-weight="bold" font-size="12.00">float</text>
<text text-anchor="start" x="298.64" y="-962.56" font-family="Helvetica,sans-Serif" font-size="12.00">df </text>
<text text-anchor="start" x="314.64" y="-962.56" font-family="Helvetica,sans-Serif" font-weight="bold" font-size="12.00">long</text>
<text text-anchor="start" x="298.64" y="-945.56" font-family="Helvetica,sans-Serif" font-size="12.00">low_eb </text>
<text text-anchor="start" x="344.64" y="-945.56" font-family="Helvetica,sans-Serif" font-weight="bold" font-size="12.00">float</text>
<text text-anchor="start" x="298.64" y="-928.56" font-family="Helvetica,sans-Serif" font-size="12.00">up_eb </text>
<text text-anchor="start" x="338.64" y="-928.56" font-family="Helvetica,sans-Serif" font-weight="bold" font-size="12.00">float</text>
<text text-anchor="start" x="298.64" y="-911.56" font-family="Helvetica,sans-Serif" font-size="12.00">stat_cmt </text>
<text text-anchor="start" x="354.64" y="-911.56" font-family="Helvetica,sans-Serif" font-weight="bold" font-size="12.00">text</text>
<text text-anchor="start" x="298.64" y="-894.56" font-family="Helvetica,sans-Serif" font-size="12.00">add_mod_date </text>
<text text-anchor="start" x="391.64" y="-894.56" font-family="Helvetica,sans-Serif" font-weight="bold" font-size="12.00">date</text>
<text text-anchor="start" x="298.64" y="-877.56" font-family="Helvetica,sans-Serif" font-size="12.00">cc </text>
<text text-anchor="start" x="316.64" y="-877.56" font-family="Helvetica,sans-Serif" font-weight="bold" font-size="12.00">text</text>
</g>
<!-- nut_data&#45;&gt;nutr_def -->
<g id="edge4" class="edge">
<title>nut_data&#45;&gt;nutr_def</title>
<path fill="none" stroke="black" stroke-width="0.9" d="M291.45,-963.57C248.29,-918.37 193.44,-860.93 149.33,-814.74"/>
<polygon fill="black" stroke="black" stroke-width="0.9" points="151.28,-812.73 143.73,-808.87 147.23,-816.59 151.28,-812.73"/>
</g>
<!-- nut_data&#45;&gt;food_des -->
<g id="edge5" class="edge">
<title>nut_data&#45;&gt;food_des</title>
<path fill="none" stroke="black" stroke-width="0.9" d="M435.66,-878.64C455.37,-834.71 476.6,-787.38 495.89,-744.39"/>
<polygon fill="black" stroke="black" stroke-width="0.9" points="498.49,-745.42 499.21,-736.98 493.38,-743.13 498.49,-745.42"/>
</g>
<!-- nut_data&#45;&gt;src_cd -->
<g id="edge3" class="edge">
<title>nut_data&#45;&gt;src_cd</title>
<path fill="none" stroke="black" stroke-width="0.9" d="M341.4,-1210.18C334.99,-1259.4 328.56,-1308.9 324.14,-1342.83"/>
<polygon fill="black" stroke="black" stroke-width="0.9" points="321.32,-1342.81 323.07,-1351.11 326.88,-1343.53 321.32,-1342.81"/>
</g>
<!-- nut_data&#45;&gt;deriv_cd -->
<g id="edge2" class="edge">
<title>nut_data&#45;&gt;deriv_cd</title>
<path fill="none" stroke="black" stroke-width="0.9" d="M436,-1090.82C495.07,-1132.98 577.35,-1191.72 631.58,-1230.43"/>
<polygon fill="black" stroke="black" stroke-width="0.9" points="630.24,-1232.92 638.38,-1235.29 633.5,-1228.36 630.24,-1232.92"/>
</g>
<!-- lang_desc -->
<g id="node8" class="node">
<title>lang_desc</title>
<path fill="none" stroke="black" d="M785.57,-0.84C785.57,-0.84 905.57,-0.84 905.57,-0.84 911.57,-0.84 917.57,-6.84 917.57,-12.84 917.57,-12.84 917.57,-58.84 917.57,-58.84 917.57,-64.84 911.57,-70.84 905.57,-70.84 905.57,-70.84 785.57,-70.84 785.57,-70.84 779.57,-70.84 773.57,-64.84 773.57,-58.84 773.57,-58.84 773.57,-12.84 773.57,-12.84 773.57,-6.84 779.57,-0.84 785.57,-0.84"/>
<text text-anchor="start" x="809.57" y="-50.44" font-family="Helvetica,sans-Serif" font-weight="bold" font-size="13.00">lang_desc</text>
<polyline fill="none" stroke="black" points="773.57,-40.84 917.57,-40.84 "/>
<text text-anchor="start" x="780.57" y="-27.24" font-family="Helvetica,sans-Serif" font-size="12.00">id* </text>
<text text-anchor="start" x="801.57" y="-27.24" font-family="Helvetica,sans-Serif" font-weight="bold" font-size="12.00">text</text>
<text text-anchor="start" x="780.57" y="-10.24" font-family="Helvetica,sans-Serif" font-size="12.00">description </text>
<text text-anchor="start" x="850.57" y="-10.24" font-family="Helvetica,sans-Serif" font-weight="bold" font-size="12.00">text</text>
</g>
<!-- langual -->
<g id="node9" class="node">
<title>langual</title>
<path fill="none" stroke="black" d="M493.62,-268.76C493.62,-268.76 613.62,-268.76 613.62,-268.76 619.62,-268.76 625.62,-274.76 625.62,-280.76 625.62,-280.76 625.62,-326.76 625.62,-326.76 625.62,-332.76 619.62,-338.76 613.62,-338.76 613.62,-338.76 493.62,-338.76 493.62,-338.76 487.62,-338.76 481.62,-332.76 481.62,-326.76 481.62,-326.76 481.62,-280.76 481.62,-280.76 481.62,-274.76 487.62,-268.76 493.62,-268.76"/>
<text text-anchor="start" x="526.62" y="-318.36" font-family="Helvetica,sans-Serif" font-weight="bold" font-size="13.00">langual</text>
<polyline fill="none" stroke="black" points="481.62,-308.76 625.62,-308.76 "/>
<text text-anchor="start" x="488.62" y="-295.16" font-family="Helvetica,sans-Serif" font-size="12.00">food_id </text>
<text text-anchor="start" x="536.62" y="-295.16" font-family="Helvetica,sans-Serif" font-weight="bold" font-size="12.00">int</text>
<text text-anchor="start" x="488.62" y="-278.16" font-family="Helvetica,sans-Serif" font-size="12.00">factor_id </text>
<text text-anchor="start" x="545.62" y="-278.16" font-family="Helvetica,sans-Serif" font-weight="bold" font-size="12.00">text</text>
</g>
<!-- langual&#45;&gt;food_des -->
<g id="edge7" class="edge">
<title>langual&#45;&gt;food_des</title>
<path fill="none" stroke="black" stroke-width="0.9" d="M554.47,-338.87C555.18,-367.98 556.24,-411.45 557.28,-454.59"/>
<polygon fill="black" stroke="black" stroke-width="0.9" points="554.49,-454.71 557.48,-462.64 560.08,-454.58 554.49,-454.71"/>
</g>
<!-- langual&#45;&gt;lang_desc -->
<g id="edge6" class="edge">
<title>langual&#45;&gt;lang_desc</title>
<path fill="none" stroke="black" stroke-width="0.9" d="M591.79,-268.74C645.77,-219.19 744.2,-128.86 801.32,-76.45"/>
<polygon fill="black" stroke="black" stroke-width="0.9" points="803.39,-78.35 807.39,-70.87 799.6,-74.22 803.39,-78.35"/>
</g>
<!-- data_src -->
<g id="node10" class="node">
<title>data_src</title>
<path fill="none" stroke="black" d="M121.95,-7.13C121.95,-7.13 241.95,-7.13 241.95,-7.13 247.95,-7.13 253.95,-13.13 253.95,-19.13 253.95,-19.13 253.95,-184.13 253.95,-184.13 253.95,-190.13 247.95,-196.13 241.95,-196.13 241.95,-196.13 121.95,-196.13 121.95,-196.13 115.95,-196.13 109.95,-190.13 109.95,-184.13 109.95,-184.13 109.95,-19.13 109.95,-19.13 109.95,-13.13 115.95,-7.13 121.95,-7.13"/>
<text text-anchor="start" x="150.95" y="-175.73" font-family="Helvetica,sans-Serif" font-weight="bold" font-size="13.00">data_src</text>
<polyline fill="none" stroke="black" points="109.95,-166.13 253.95,-166.13 "/>
<text text-anchor="start" x="116.95" y="-152.03" font-family="Helvetica,sans-Serif" font-size="12.00">id* </text>
<text text-anchor="start" x="137.95" y="-152.03" font-family="Helvetica,sans-Serif" font-weight="bold" font-size="12.00">text</text>
<text text-anchor="start" x="116.95" y="-135.03" font-family="Helvetica,sans-Serif" font-size="12.00">authors </text>
<text text-anchor="start" x="166.95" y="-135.03" font-family="Helvetica,sans-Serif" font-weight="bold" font-size="12.00">text</text>
<text text-anchor="start" x="116.95" y="-118.03" font-family="Helvetica,sans-Serif" font-size="12.00">title </text>
<text text-anchor="start" x="143.95" y="-118.03" font-family="Helvetica,sans-Serif" font-weight="bold" font-size="12.00">text</text>
<text text-anchor="start" x="116.95" y="-101.03" font-family="Helvetica,sans-Serif" font-size="12.00">year </text>
<text text-anchor="start" x="147.95" y="-101.03" font-family="Helvetica,sans-Serif" font-weight="bold" font-size="12.00">text</text>
<text text-anchor="start" x="116.95" y="-84.03" font-family="Helvetica,sans-Serif" font-size="12.00">journal </text>
<text text-anchor="start" x="161.95" y="-84.03" font-family="Helvetica,sans-Serif" font-weight="bold" font-size="12.00">text</text>
<text text-anchor="start" x="116.95" y="-67.03" font-family="Helvetica,sans-Serif" font-size="12.00">vol_city </text>
<text text-anchor="start" x="165.95" y="-67.03" font-family="Helvetica,sans-Serif" font-weight="bold" font-size="12.00">text</text>
<text text-anchor="start" x="116.95" y="-50.03" font-family="Helvetica,sans-Serif" font-size="12.00">issue_state </text>
<text text-anchor="start" x="186.95" y="-50.03" font-family="Helvetica,sans-Serif" font-weight="bold" font-size="12.00">text</text>
<text text-anchor="start" x="116.95" y="-33.03" font-family="Helvetica,sans-Serif" font-size="12.00">start_page </text>
<text text-anchor="start" x="184.95" y="-33.03" font-family="Helvetica,sans-Serif" font-weight="bold" font-size="12.00">text</text>
<text text-anchor="start" x="116.95" y="-16.03" font-family="Helvetica,sans-Serif" font-size="12.00">end_page </text>
<text text-anchor="start" x="179.95" y="-16.03" font-family="Helvetica,sans-Serif" font-weight="bold" font-size="12.00">text</text>
</g>
<!-- datsrcln -->
<g id="node11" class="node">
<title>datsrcln</title>
<path fill="none" stroke="black" d="M73.88,-317.78C73.88,-317.78 193.88,-317.78 193.88,-317.78 199.88,-317.78 205.88,-323.78 205.88,-329.78 205.88,-329.78 205.88,-392.78 205.88,-392.78 205.88,-398.78 199.88,-404.78 193.88,-404.78 193.88,-404.78 73.88,-404.78 73.88,-404.78 67.88,-404.78 61.88,-398.78 61.88,-392.78 61.88,-392.78 61.88,-329.78 61.88,-329.78 61.88,-323.78 67.88,-317.78 73.88,-317.78"/>
<text text-anchor="start" x="103.88" y="-384.38" font-family="Helvetica,sans-Serif" font-weight="bold" font-size="13.00">datsrcln</text>
<polyline fill="none" stroke="black" points="61.88,-374.78 205.88,-374.78 "/>
<text text-anchor="start" x="68.88" y="-360.68" font-family="Helvetica,sans-Serif" font-size="12.00">food_id </text>
<text text-anchor="start" x="116.88" y="-360.68" font-family="Helvetica,sans-Serif" font-weight="bold" font-size="12.00">int</text>
<text text-anchor="start" x="68.88" y="-343.68" font-family="Helvetica,sans-Serif" font-size="12.00">nutr_id </text>
<text text-anchor="start" x="114.88" y="-343.68" font-family="Helvetica,sans-Serif" font-weight="bold" font-size="12.00">int</text>
<text text-anchor="start" x="68.88" y="-326.68" font-family="Helvetica,sans-Serif" font-size="12.00">data_src_id </text>
<text text-anchor="start" x="139.88" y="-326.68" font-family="Helvetica,sans-Serif" font-weight="bold" font-size="12.00">text</text>
</g>
<!-- datsrcln&#45;&gt;nutr_def -->
<g id="edge9" class="edge">
<title>datsrcln&#45;&gt;nutr_def</title>
<path fill="none" stroke="black" stroke-width="0.9" d="M126.56,-405.06C116.99,-462.24 99.98,-563.89 87.41,-638.98"/>
<polygon fill="black" stroke="black" stroke-width="0.9" points="84.61,-638.73 86.05,-647.08 90.14,-639.65 84.61,-638.73"/>
</g>
<!-- datsrcln&#45;&gt;food_des -->
<g id="edge10" class="edge">
<title>datsrcln&#45;&gt;food_des</title>
<path fill="none" stroke="black" stroke-width="0.9" d="M206.31,-401.72C282.74,-444.41 402.85,-511.48 481.72,-555.52"/>
<polygon fill="black" stroke="black" stroke-width="0.9" points="480.4,-557.99 488.75,-559.45 483.13,-553.1 480.4,-557.99"/>
</g>
<!-- datsrcln&#45;&gt;data_src -->
<g id="edge8" class="edge">
<title>datsrcln&#45;&gt;data_src</title>
<path fill="none" stroke="black" stroke-width="0.9" d="M141.98,-317.53C147.7,-286.63 155.61,-243.89 162.89,-204.59"/>
<polygon fill="black" stroke="black" stroke-width="0.9" points="165.73,-204.64 164.43,-196.26 160.22,-203.62 165.73,-204.64"/>
</g>
<!-- footnote -->
<g id="node12" class="node">
<title>footnote</title>
<path fill="none" stroke="black" d="M187.63,-558.55C187.63,-558.55 307.63,-558.55 307.63,-558.55 313.63,-558.55 319.63,-564.55 319.63,-570.55 319.63,-570.55 319.63,-667.55 319.63,-667.55 319.63,-673.55 313.63,-679.55 307.63,-679.55 307.63,-679.55 187.63,-679.55 187.63,-679.55 181.63,-679.55 175.63,-673.55 175.63,-667.55 175.63,-667.55 175.63,-570.55 175.63,-570.55 175.63,-564.55 181.63,-558.55 187.63,-558.55"/>
<text text-anchor="start" x="215.63" y="-659.15" font-family="Helvetica,sans-Serif" font-weight="bold" font-size="13.00">footnote</text>
<polyline fill="none" stroke="black" points="175.63,-649.55 319.63,-649.55 "/>
<text text-anchor="start" x="182.63" y="-635.45" font-family="Helvetica,sans-Serif" font-size="12.00">food_id </text>
<text text-anchor="start" x="230.63" y="-635.45" font-family="Helvetica,sans-Serif" font-weight="bold" font-size="12.00">int</text>
<text text-anchor="start" x="182.63" y="-618.45" font-family="Helvetica,sans-Serif" font-size="12.00">footnt_no </text>
<text text-anchor="start" x="243.63" y="-618.45" font-family="Helvetica,sans-Serif" font-weight="bold" font-size="12.00">int</text>
<text text-anchor="start" x="182.63" y="-601.45" font-family="Helvetica,sans-Serif" font-size="12.00">footnt_typ </text>
<text text-anchor="start" x="247.63" y="-601.45" font-family="Helvetica,sans-Serif" font-weight="bold" font-size="12.00">text</text>
<text text-anchor="start" x="182.63" y="-584.45" font-family="Helvetica,sans-Serif" font-size="12.00">nutr_id </text>
<text text-anchor="start" x="228.63" y="-584.45" font-family="Helvetica,sans-Serif" font-weight="bold" font-size="12.00">int</text>
<text text-anchor="start" x="182.63" y="-567.45" font-family="Helvetica,sans-Serif" font-size="12.00">footnt_txt </text>
<text text-anchor="start" x="244.63" y="-567.45" font-family="Helvetica,sans-Serif" font-weight="bold" font-size="12.00">text</text>
</g>
<!-- footnote&#45;&gt;nutr_def -->
<g id="edge11" class="edge">
<title>footnote&#45;&gt;nutr_def</title>
<path fill="none" stroke="black" stroke-width="0.9" d="M175.53,-665.87C167.37,-671.17 159.02,-676.59 150.78,-681.95"/>
<polygon fill="black" stroke="black" stroke-width="0.9" points="149.07,-679.72 143.89,-686.42 152.12,-684.41 149.07,-679.72"/>
</g>
<!-- footnote&#45;&gt;food_des -->
<g id="edge12" class="edge">
<title>footnote&#45;&gt;food_des</title>
<path fill="none" stroke="black" stroke-width="0.9" d="M319.87,-614.58C367.87,-611.62 430.94,-607.72 480.51,-604.65"/>
<polygon fill="black" stroke="black" stroke-width="0.9" points="480.85,-607.44 488.66,-604.15 480.5,-601.85 480.85,-607.44"/>
</g>
<!-- serv_desc -->
<g id="node13" class="node">
<title>serv_desc</title>
<path fill="none" stroke="black" d="M90.72,-1015.62C90.72,-1015.62 210.72,-1015.62 210.72,-1015.62 216.72,-1015.62 222.72,-1021.62 222.72,-1027.62 222.72,-1027.62 222.72,-1073.62 222.72,-1073.62 222.72,-1079.62 216.72,-1085.62 210.72,-1085.62 210.72,-1085.62 90.72,-1085.62 90.72,-1085.62 84.72,-1085.62 78.72,-1079.62 78.72,-1073.62 78.72,-1073.62 78.72,-1027.62 78.72,-1027.62 78.72,-1021.62 84.72,-1015.62 90.72,-1015.62"/>
<text text-anchor="start" x="114.72" y="-1065.22" font-family="Helvetica,sans-Serif" font-weight="bold" font-size="13.00">serv_desc</text>
<polyline fill="none" stroke="black" points="78.72,-1055.62 222.72,-1055.62 "/>
<text text-anchor="start" x="85.72" y="-1042.02" font-family="Helvetica,sans-Serif" font-size="12.00">id* </text>
<text text-anchor="start" x="106.72" y="-1042.02" font-family="Helvetica,sans-Serif" font-weight="bold" font-size="12.00">integer</text>
<text text-anchor="start" x="85.72" y="-1025.02" font-family="Helvetica,sans-Serif" font-size="12.00">msre_desc </text>
<text text-anchor="start" x="153.72" y="-1025.02" font-family="Helvetica,sans-Serif" font-weight="bold" font-size="12.00">text</text>
</g>
<!-- serving -->
<g id="node14" class="node">
<title>serving</title>
<path fill="none" stroke="black" d="M537.08,-790.12C537.08,-790.12 657.08,-790.12 657.08,-790.12 663.08,-790.12 669.08,-796.12 669.08,-802.12 669.08,-802.12 669.08,-899.12 669.08,-899.12 669.08,-905.12 663.08,-911.12 657.08,-911.12 657.08,-911.12 537.08,-911.12 537.08,-911.12 531.08,-911.12 525.08,-905.12 525.08,-899.12 525.08,-899.12 525.08,-802.12 525.08,-802.12 525.08,-796.12 531.08,-790.12 537.08,-790.12"/>
<text text-anchor="start" x="570.08" y="-890.72" font-family="Helvetica,sans-Serif" font-weight="bold" font-size="13.00">serving</text>
<polyline fill="none" stroke="black" points="525.08,-881.12 669.08,-881.12 "/>
<text text-anchor="start" x="532.08" y="-867.02" font-family="Helvetica,sans-Serif" font-size="12.00">food_id </text>
<text text-anchor="start" x="580.08" y="-867.02" font-family="Helvetica,sans-Serif" font-weight="bold" font-size="12.00">int</text>
<text text-anchor="start" x="532.08" y="-850.02" font-family="Helvetica,sans-Serif" font-size="12.00">msre_id </text>
<text text-anchor="start" x="583.08" y="-850.02" font-family="Helvetica,sans-Serif" font-weight="bold" font-size="12.00">int</text>
<text text-anchor="start" x="532.08" y="-833.02" font-family="Helvetica,sans-Serif" font-size="12.00">grams </text>
<text text-anchor="start" x="575.08" y="-833.02" font-family="Helvetica,sans-Serif" font-weight="bold" font-size="12.00">float</text>
<text text-anchor="start" x="532.08" y="-816.02" font-family="Helvetica,sans-Serif" font-size="12.00">num_data_pts </text>
<text text-anchor="start" x="620.08" y="-816.02" font-family="Helvetica,sans-Serif" font-weight="bold" font-size="12.00">int</text>
<text text-anchor="start" x="532.08" y="-799.02" font-family="Helvetica,sans-Serif" font-size="12.00">std_dev </text>
<text text-anchor="start" x="582.08" y="-799.02" font-family="Helvetica,sans-Serif" font-weight="bold" font-size="12.00">float</text>
</g>
<!-- serving&#45;&gt;food_des -->
<g id="edge14" class="edge">
<title>serving&#45;&gt;food_des</title>
<path fill="none" stroke="black" stroke-width="0.9" d="M588.3,-789.88C586.3,-776.05 584.09,-760.77 581.82,-745.06"/>
<polygon fill="black" stroke="black" stroke-width="0.9" points="584.55,-744.33 580.63,-736.81 579,-745.13 584.55,-744.33"/>
</g>
<!-- serving&#45;&gt;serv_desc -->
<g id="edge13" class="edge">
<title>serving&#45;&gt;serv_desc</title>
<path fill="none" stroke="black" stroke-width="0.9" d="M524.81,-837.26C459.17,-828.85 361.7,-825.93 288.44,-864.96 230.35,-895.91 190.16,-963.41 168.79,-1007.92"/>
<polygon fill="black" stroke="black" stroke-width="0.9" points="166.14,-1006.97 165.26,-1015.41 171.2,-1009.36 166.14,-1006.97"/>
</g>
</g>
</svg>
